<svg width="960" height="540" viewBox="0 0 960 540" fill="none" xmlns="http://www.w3.org/2000/svg">
<path d="M960 0H0V540H960V0Z"/>
<path d="M736 478C789.572 478 833 434.572 833 381C833 327.428 789.572 284 736 284C682.428 284 639 327.428 639 381C639 434.572 682.428 478 736 478Z" stroke="#B00752" stroke-width="2"/>
<path d="M500 306C506.075 306 511 301.075 511 295C511 288.925 506.075 284 500 284C493.925 284 489 288.925 489 295C489 301.075 493.925 306 500 306Z" stroke="#B00752" stroke-width="2"/>
<path d="M131 274C163.033 274 189 248.033 189 216C189 183.967 163.033 158 131 158C98.9675 158 73 183.967 73 216C73 248.033 98.9675 274 131 274Z" stroke="#B00752" stroke-width="2"/>
<path d="M838 185C845.732 185 852 178.732 852 171C852 163.268 845.732 157 838 157C830.268 157 824 163.268 824 171C824 178.732 830.268 185 838 185Z" stroke="#B00752" stroke-width="2"/>
<path d="M390 436C408.778 436 424 420.778 424 402C424 383.222 408.778 368 390 368C371.222 368 356 383.222 356 402C356 420.778 371.222 436 390 436Z" stroke="#B00752" stroke-width="2"/>
<path d="M331.5 124C341.717 124 350 115.717 350 105.5C350 95.2827 341.717 87 331.5 87C321.283 87 313 95.2827 313 105.5C313 115.717 321.283 124 331.5 124Z" stroke="#B00752" stroke-width="2"/>
<path d="M283 379C289.075 379 294 374.075 294 368C294 361.925 289.075 357 283 357C276.925 357 272 361.925 272 368C272 374.075 276.925 379 283 379Z" stroke="#B00752" stroke-width="2"/>
<path d="M623 153C647.301 153 667 133.301 667 109C667 84.6995 647.301 65 623 65C598.699 65 579 84.6995 579 109C579 133.301 598.699 153 623 153Z" stroke="#B00752" stroke-width="2"/>
</svg>
