<svg width="540" height="1015" viewBox="0 0 540 1015" fill="none" xmlns="http://www.w3.org/2000/svg">
<path d="M161.5 497C170.613 497 178 489.613 178 480.5C178 471.387 170.613 464 161.5 464C152.387 464 145 471.387 145 480.5C145 489.613 152.387 497 161.5 497Z" stroke="#B00752" stroke-width="2"/>
<path d="M214.5 896C278.289 896 330 844.289 330 780.5C330 716.711 278.289 665 214.5 665C150.711 665 99 716.711 99 780.5C99 844.289 150.711 896 214.5 896Z" stroke="#B00752" stroke-width="2"/>
<path d="M396 680C410.912 680 423 667.912 423 653C423 638.088 410.912 626 396 626C381.088 626 369 638.088 369 653C369 667.912 381.088 680 396 680Z" stroke="#B00752" stroke-width="2"/>
<path d="M441 380C475.794 380 504 351.794 504 317C504 282.206 475.794 254 441 254C406.206 254 378 282.206 378 317C378 351.794 406.206 380 441 380Z" stroke="#B00752" stroke-width="2"/>
<path d="M84 318C101.673 318 116 303.673 116 286C116 268.327 101.673 254 84 254C66.3269 254 52 268.327 52 286C52 303.673 66.3269 318 84 318Z" stroke="#B00752" stroke-width="2"/>
<path d="M319 153C333.359 153 345 141.359 345 127C345 112.641 333.359 101 319 101C304.641 101 293 112.641 293 127C293 141.359 304.641 153 319 153Z" stroke="#B00752" stroke-width="2"/>
<path d="M357 1014C371.912 1014 384 1001.91 384 987C384 972.088 371.912 960 357 960C342.088 960 330 972.088 330 987C330 1001.91 342.088 1014 357 1014Z" stroke="#B00752" stroke-width="2"/>
</svg>
